<svg viewBox="0 0 42.02 42.0203" xmlns="http://www.w3.org/2000/svg" xmlns:xlink="http://www.w3.org/1999/xlink" width="42.020020" height="42.020264" fill="none">
	<rect id="Frame" width="42.020203" height="42.020203" x="0.000000" y="0.000000" fill="rgb(255,255,255)" fill-opacity="0" />
	<path id="Vector" d="M38.5183 21.0099C38.5183 30.6794 30.6794 38.5183 21.0099 38.5183C11.3402 38.5183 3.50146 30.6794 3.50146 21.0099M14.8819 4.60381C16.7892 3.89111 18.8541 3.50146 21.0099 3.50146C23.1657 3.50146 25.2306 3.89111 27.1378 4.60381" fill-rule="nonzero" stroke="rgb(26,26,26)" stroke-width="1.5" />
	<path id="Vector" d="M38.5183 21.0099C38.5183 30.6794 30.6794 38.5183 21.0099 38.5183C11.3402 38.5183 3.50146 30.6794 3.50146 21.0099M14.8819 4.60381C16.7892 3.89111 18.8541 3.50146 21.0099 3.50146C23.1657 3.50146 25.2306 3.89111 27.1378 4.60381" fill-rule="nonzero" stroke="rgb(0,0,0)" stroke-opacity="0.200000003" stroke-width="1.5" />
	<path id="Vector" d="M14.0877 11.3767C14.2138 11.6361 14.5499 11.885 14.8335 11.9327L16.5089 12.2133C17.5803 12.3934 17.8324 13.1771 17.0603 13.9502L15.7579 15.2635C15.5373 15.4859 15.4165 15.9148 15.4847 16.2219L15.8576 17.8475C16.1517 19.1344 15.4743 19.6321 14.3451 18.9596L12.7748 18.0224C12.4911 17.8529 12.0237 17.8529 11.7349 18.0224L10.1645 18.9596C9.04061 19.6321 8.35785 19.1291 8.65198 17.8475L9.02485 16.2219C9.09314 15.9148 8.97235 15.4859 8.75176 15.2635L7.44927 13.9502C6.68249 13.1771 6.92932 12.3934 8.00074 12.2133L9.6761 11.9327C9.95445 11.885 10.2906 11.6361 10.4166 11.3767L11.341 9.51271C11.8451 8.5013 12.6645 8.5013 13.1634 9.51271L14.0877 11.3767Z" fill-rule="nonzero" stroke="rgb(26,26,26)" stroke-linecap="round" stroke-linejoin="round" stroke-width="1.5" />
	<path id="Vector" d="M14.0877 11.3767C14.2138 11.6361 14.5499 11.885 14.8335 11.9327L16.5089 12.2133C17.5803 12.3934 17.8324 13.1771 17.0603 13.9502L15.7579 15.2635C15.5373 15.4859 15.4165 15.9148 15.4847 16.2219L15.8576 17.8475C16.1517 19.1344 15.4743 19.6321 14.3451 18.9596L12.7748 18.0224C12.4911 17.8529 12.0237 17.8529 11.7349 18.0224L10.1645 18.9596C9.04061 19.6321 8.35785 19.1291 8.65198 17.8475L9.02485 16.2219C9.09314 15.9148 8.97235 15.4859 8.75176 15.2635L7.44927 13.9502C6.68249 13.1771 6.92932 12.3934 8.00074 12.2133L9.6761 11.9327C9.95445 11.885 10.2906 11.6361 10.4166 11.3767L11.341 9.51271C11.8451 8.5013 12.6645 8.5013 13.1634 9.51271L14.0877 11.3767Z" fill-rule="nonzero" stroke="rgb(0,0,0)" stroke-opacity="0.200000003" stroke-linecap="round" stroke-linejoin="round" stroke-width="1.5" />
	<path id="Vector" d="M31.596 11.3767C31.722 11.6361 32.0582 11.885 32.3418 11.9327L34.0172 12.2133C35.0885 12.3934 35.3406 13.1771 34.5685 13.9502L33.2661 15.2635C33.0455 15.4859 32.9247 15.9148 32.993 16.2219L33.3659 17.8475C33.66 19.1344 32.9824 19.6321 31.8533 18.9596L30.283 18.0224C29.9994 17.8529 29.5321 17.8529 29.2432 18.0224L27.6728 18.9596C26.549 19.6321 25.8661 19.1291 26.1603 17.8475L26.5332 16.2219C26.6013 15.9148 26.4807 15.4859 26.2601 15.2635L24.9576 13.9502C24.1908 13.1771 24.4376 12.3934 25.509 12.2133L27.1844 11.9327C27.4627 11.885 27.7989 11.6361 27.925 11.3767L28.8492 9.51271C29.3535 8.5013 30.1727 8.5013 30.6717 9.51271L31.596 11.3767Z" fill-rule="nonzero" stroke="rgb(26,26,26)" stroke-linecap="round" stroke-linejoin="round" stroke-width="1.5" />
	<path id="Vector" d="M31.596 11.3767C31.722 11.6361 32.0582 11.885 32.3418 11.9327L34.0172 12.2133C35.0885 12.3934 35.3406 13.1771 34.5685 13.9502L33.2661 15.2635C33.0455 15.4859 32.9247 15.9148 32.993 16.2219L33.3659 17.8475C33.66 19.1344 32.9824 19.6321 31.8533 18.9596L30.283 18.0224C29.9994 17.8529 29.5321 17.8529 29.2432 18.0224L27.6728 18.9596C26.549 19.6321 25.8661 19.1291 26.1603 17.8475L26.5332 16.2219C26.6013 15.9148 26.4807 15.4859 26.2601 15.2635L24.9576 13.9502C24.1908 13.1771 24.4376 12.3934 25.509 12.2133L27.1844 11.9327C27.4627 11.885 27.7989 11.6361 27.925 11.3767L28.8492 9.51271C29.3535 8.5013 30.1727 8.5013 30.6717 9.51271L31.596 11.3767Z" fill-rule="nonzero" stroke="rgb(0,0,0)" stroke-opacity="0.200000003" stroke-linecap="round" stroke-linejoin="round" stroke-width="1.5" />
	<path id="Vector" d="M14.0063 26.2625C15.6033 28.3887 18.1459 29.7641 21.0097 29.7641C23.8736 29.7641 26.4161 28.3887 28.0131 26.2625" fill-rule="nonzero" stroke="rgb(26,26,26)" stroke-width="1.5" />
	<path id="Vector" d="M14.0063 26.2625C15.6033 28.3887 18.1459 29.7641 21.0097 29.7641C23.8736 29.7641 26.4161 28.3887 28.0131 26.2625" fill-rule="nonzero" stroke="rgb(0,0,0)" stroke-opacity="0.200000003" stroke-width="1.5" />
</svg>
