<svg viewBox="0 0 42.02 42.0203" xmlns="http://www.w3.org/2000/svg" xmlns:xlink="http://www.w3.org/1999/xlink" width="42.020020" height="42.020264" fill="none">
	<rect id="Frame" width="42.020203" height="42.020203" x="0.000000" y="0.000000" fill="rgb(255,255,255)" fill-opacity="0" />
	<path id="Vector" d="M29.7643 35.0167C27.3469 35.0167 25.3872 33.0569 25.3872 30.6396C25.3872 28.2222 27.3469 26.2625 29.7643 26.2625C32.1817 26.2625 34.1414 28.2222 34.1414 30.6396C34.1414 33.0569 32.1817 35.0167 29.7643 35.0167Z" fill-rule="nonzero" stroke="rgb(26,26,26)" stroke-width="1.5" />
	<path id="Vector" d="M29.7643 35.0167C27.3469 35.0167 25.3872 33.0569 25.3872 30.6396C25.3872 28.2222 27.3469 26.2625 29.7643 26.2625C32.1817 26.2625 34.1414 28.2222 34.1414 30.6396C34.1414 33.0569 32.1817 35.0167 29.7643 35.0167Z" fill-rule="nonzero" stroke="rgb(0,0,0)" stroke-opacity="0.200000003" stroke-width="1.5" />
	<path id="Vector" d="M12.2555 35.0167C9.83812 35.0167 7.87842 33.0569 7.87842 30.6396C7.87842 28.2222 9.83812 26.2625 12.2555 26.2625C14.6729 26.2625 16.6326 28.2222 16.6326 30.6396C16.6326 33.0569 14.6729 35.0167 12.2555 35.0167Z" fill-rule="nonzero" stroke="rgb(26,26,26)" stroke-width="1.5" />
	<path id="Vector" d="M12.2555 35.0167C9.83812 35.0167 7.87842 33.0569 7.87842 30.6396C7.87842 28.2222 9.83812 26.2625 12.2555 26.2625C14.6729 26.2625 16.6326 28.2222 16.6326 30.6396C16.6326 33.0569 14.6729 35.0167 12.2555 35.0167Z" fill-rule="nonzero" stroke="rgb(0,0,0)" stroke-opacity="0.200000003" stroke-width="1.5" />
	<path id="Vector" d="M25.387 30.6395L16.6328 30.6395M34.1412 30.6395L35.4774 30.6395C35.8624 30.6395 36.055 30.6395 36.2168 30.6194C37.4098 30.4708 38.3495 29.5311 38.4982 28.3381C38.5183 28.1763 38.5183 27.9837 38.5183 27.5987L38.5183 22.7607C38.5183 16.4755 33.4232 11.3803 27.1378 11.3803M3.50146 7.00317L21.0099 7.00317C23.4859 7.00317 24.7239 7.00317 25.4933 7.77239C26.2624 8.5416 26.2624 9.77964 26.2624 12.2557L26.2624 27.1379M3.50146 22.323L3.50146 26.2624C3.50146 27.8988 3.50146 28.7169 3.85331 29.3264C4.08381 29.7256 4.41535 30.0572 4.8146 30.2876C5.42403 30.6395 6.2422 30.6395 7.87857 30.6395" fill-rule="nonzero" stroke="rgb(26,26,26)" stroke-width="1.5" />
	<path id="Vector" d="M25.387 30.6395L16.6328 30.6395M34.1412 30.6395L35.4774 30.6395C35.8624 30.6395 36.055 30.6395 36.2168 30.6194C37.4098 30.4708 38.3495 29.5311 38.4982 28.3381C38.5183 28.1763 38.5183 27.9837 38.5183 27.5987L38.5183 22.7607C38.5183 16.4755 33.4232 11.3803 27.1378 11.3803M3.50146 7.00317L21.0099 7.00317C23.4859 7.00317 24.7239 7.00317 25.4933 7.77239C26.2624 8.5416 26.2624 9.77964 26.2624 12.2557L26.2624 27.1379M3.50146 22.323L3.50146 26.2624C3.50146 27.8988 3.50146 28.7169 3.85331 29.3264C4.08381 29.7256 4.41535 30.0572 4.8146 30.2876C5.42403 30.6395 6.2422 30.6395 7.87857 30.6395" fill-rule="nonzero" stroke="rgb(0,0,0)" stroke-opacity="0.200000003" stroke-width="1.5" />
	<path id="Vector" d="M3.50146 12.2559L14.0065 12.2559M3.50146 17.5084L10.5048 17.5084" fill-rule="nonzero" stroke="rgb(26,26,26)" stroke-width="1.5" />
	<path id="Vector" d="M3.50146 12.2559L14.0065 12.2559M3.50146 17.5084L10.5048 17.5084" fill-rule="nonzero" stroke="rgb(0,0,0)" stroke-opacity="0.200000003" stroke-width="1.5" />
</svg>
