<svg viewBox="0 0 42.02 42.0203" xmlns="http://www.w3.org/2000/svg" xmlns:xlink="http://www.w3.org/1999/xlink" width="42.020020" height="42.020264" fill="none">
	<rect id="Frame" width="42.020203" height="42.020203" x="0.000000" y="0.000000" fill="rgb(255,255,255)" fill-opacity="0" />
	<path id="Vector" d="M14.7756 32.2843C15.5448 31.5151 16.7828 31.5151 19.2589 31.5151L22.7606 31.5151C25.2366 31.5151 26.4746 31.5151 27.2439 32.2843C28.0131 33.0536 28.0131 34.2916 28.0131 36.7677L28.0131 38.5185L14.0063 38.5185L14.0063 36.7677C14.0063 34.2916 14.0063 33.0536 14.7756 32.2843Z" fill-rule="nonzero" stroke="rgb(26,26,26)" stroke-linecap="round" stroke-linejoin="round" stroke-width="1.5" />
	<path id="Vector" d="M14.7756 32.2843C15.5448 31.5151 16.7828 31.5151 19.2589 31.5151L22.7606 31.5151C25.2366 31.5151 26.4746 31.5151 27.2439 32.2843C28.0131 33.0536 28.0131 34.2916 28.0131 36.7677L28.0131 38.5185L14.0063 38.5185L14.0063 36.7677C14.0063 34.2916 14.0063 33.0536 14.7756 32.2843Z" fill-rule="nonzero" stroke="rgb(0,0,0)" stroke-opacity="0.200000003" stroke-linecap="round" stroke-linejoin="round" stroke-width="1.5" />
	<path id="Vector" d="M0 0L8.75421 0" stroke="rgb(26,26,26)" stroke-width="1.5" transform="matrix(0,1,-1,0,21.0103,22.7607)" />
	<path id="Vector" d="M0 0L8.75421 0" stroke="rgb(0,0,0)" stroke-opacity="0.200000003" stroke-width="1.5" transform="matrix(0,1,-1,0,21.0103,22.7607)" />
	<path id="Vector" d="M10.5049 38.5183L31.515 38.5183" stroke="rgb(26,26,26)" stroke-width="1.5" />
	<path id="Vector" d="M10.5049 38.5183L31.515 38.5183" stroke="rgb(0,0,0)" stroke-opacity="0.200000003" stroke-width="1.5" />
	<path id="Vector" d="M24.6736 8.74652C24.9255 9.26545 25.5978 9.76321 26.1651 9.85853L29.5159 10.4198C31.6586 10.7799 32.1628 12.3474 30.6187 13.8936L28.0138 16.5201C27.5726 16.9649 27.331 17.8227 27.4676 18.437L28.2132 21.6883C28.8015 24.2619 27.4466 25.2574 25.1881 23.9124L22.0475 22.0378C21.4804 21.6988 20.5454 21.6988 19.9678 22.0378L16.8271 23.9124C14.5793 25.2574 13.2138 24.2512 13.802 21.6883L14.5478 18.437C14.6843 17.8227 14.4427 16.9649 14.0016 16.5201L11.3966 13.8936C9.86303 12.3474 10.3567 10.7799 12.4995 10.4198L15.8502 9.85853C16.407 9.76321 17.0792 9.26545 17.3313 8.74652L19.18 5.01859C20.1883 2.99576 21.8269 2.99576 22.8249 5.01859L24.6736 8.74652Z" fill-rule="nonzero" stroke="rgb(26,26,26)" stroke-linecap="round" stroke-linejoin="round" stroke-width="1.5" />
	<path id="Vector" d="M24.6736 8.74652C24.9255 9.26545 25.5978 9.76321 26.1651 9.85853L29.5159 10.4198C31.6586 10.7799 32.1628 12.3474 30.6187 13.8936L28.0138 16.5201C27.5726 16.9649 27.331 17.8227 27.4676 18.437L28.2132 21.6883C28.8015 24.2619 27.4466 25.2574 25.1881 23.9124L22.0475 22.0378C21.4804 21.6988 20.5454 21.6988 19.9678 22.0378L16.8271 23.9124C14.5793 25.2574 13.2138 24.2512 13.802 21.6883L14.5478 18.437C14.6843 17.8227 14.4427 16.9649 14.0016 16.5201L11.3966 13.8936C9.86303 12.3474 10.3567 10.7799 12.4995 10.4198L15.8502 9.85853C16.407 9.76321 17.0792 9.26545 17.3313 8.74652L19.18 5.01859C20.1883 2.99576 21.8269 2.99576 22.8249 5.01859L24.6736 8.74652Z" fill-rule="nonzero" stroke="rgb(0,0,0)" stroke-opacity="0.200000003" stroke-linecap="round" stroke-linejoin="round" stroke-width="1.5" />
</svg>
