<svg viewBox="0 0 82 82" xmlns="http://www.w3.org/2000/svg" xmlns:xlink="http://www.w3.org/1999/xlink" width="82.000000" height="82.000000" fill="none">
	<rect id="quote-up-solid-standard 1" width="82.000000" height="82.000000" x="0.000000" y="0.000000" fill="rgb(255,255,255)" fill-opacity="0" />
	<path id="Vector" d="M51.2498 34.1667C51.2498 24.7318 58.8984 17.0833 68.3332 17.0833C70.2202 17.0833 71.7498 15.5536 71.7498 13.6667C71.7498 11.7797 70.2202 10.25 68.3332 10.25C55.1243 10.25 44.4165 20.9579 44.4165 34.1667L44.4165 60.6458C44.4165 65.8351 48.6231 70.0417 53.8123 70.0417L67.479 70.0417C72.6682 70.0417 76.8748 65.8351 76.8748 60.6458L76.8748 46.9792C76.8748 41.7899 72.6682 37.5833 67.479 37.5833L53.8123 37.5833C52.924 37.5833 52.0644 37.7067 51.2498 37.937L51.2498 34.1667Z" fill="rgb(176,221,29)" fill-rule="nonzero" />
	<path id="Vector" d="M10.2498 34.1667C10.2498 24.7318 17.8983 17.0833 27.3332 17.0833C29.2201 17.0833 30.7498 15.5536 30.7498 13.6667C30.7498 11.7797 29.2201 10.25 27.3332 10.25C14.1244 10.25 3.4165 20.9579 3.4165 34.1667L3.4165 60.6458C3.4165 65.8351 7.62317 70.0417 12.8123 70.0417L26.479 70.0417C31.6682 70.0417 35.8748 65.8351 35.8748 60.6458L35.8748 46.9792C35.8748 41.7899 31.6682 37.5833 26.479 37.5833L12.8123 37.5833C11.924 37.5833 11.0644 37.7067 10.2498 37.937L10.2498 34.1667Z" fill="rgb(176,221,29)" fill-rule="nonzero" />
</svg>
