<svg viewBox="0 0 24 24" xmlns="http://www.w3.org/2000/svg" xmlns:xlink="http://www.w3.org/1999/xlink" width="24.000000" height="24.000000" fill="none">
	<rect id="Frame" width="24.000000" height="24.000000" x="0.000000" y="0.000000" fill="rgb(255,255,255)" fill-opacity="0" transform="matrix(-1,0,0,1,24,0)" />
	<path id="Vector" d="M16 0L0 0" stroke="rgb(26,26,26)" stroke-width="1.265625" transform="matrix(-1,0,0,1,20,12)" />
	<path id="Vector" d="M16 0L0 0" stroke="rgb(0,0,0)" stroke-opacity="0.200000003" stroke-width="1.265625" transform="matrix(-1,0,0,1,20,12)" />
	<path id="Vector" d="M0.000100136 10C0.000100136 10 5 6.3176 5 5C5 3.6824 0 0 0 0" fill-rule="nonzero" stroke="rgb(26,26,26)" stroke-width="1.265625" transform="matrix(-1,0,0,1,9,7)" />
	<path id="Vector" d="M0.000100136 10C0.000100136 10 5 6.3176 5 5C5 3.6824 0 0 0 0" fill-rule="nonzero" stroke="rgb(0,0,0)" stroke-opacity="0.200000003" stroke-width="1.265625" transform="matrix(-1,0,0,1,9,7)" />
</svg>
