<svg viewBox="0 0 47 47" xmlns="http://www.w3.org/2000/svg" xmlns:xlink="http://www.w3.org/1999/xlink" width="47.000000" height="47.000000" fill="none" customFrame="url(#clipPath_4)">
	<defs>
		<clipPath id="clipPath_4">
			<rect width="47.000000" height="47.000000" x="0.000000" y="0.000000" rx="23.078125" fill="rgb(255,255,255)" transform="matrix(-1,0,0,1,47,0)" />
		</clipPath>
		<clipPath id="clipPath_5">
			<rect width="20.000000" height="20.000000" x="0.000000" y="0.000000" fill="rgb(255,255,255)" transform="matrix(-1,0,0,1,33.5,13.5)" />
		</clipPath>
	</defs>
	<rect id="Frame 395" width="47.000000" height="47.000000" x="0.000000" y="0.000000" rx="23.078125" fill="rgb(255,255,255)" transform="matrix(-1,0,0,1,47,0)" />
	<rect id="Frame 395" width="46.156250" height="46.156250" x="0.421875" y="0.421875" rx="23.078125" stroke="rgb(26,26,26)" stroke-width="0.84375" transform="matrix(-1,0,0,1,47,0)" />
	<rect id="Frame 395" width="46.156250" height="46.156250" x="0.421875" y="0.421875" rx="23.078125" stroke="rgb(0,0,0)" stroke-opacity="0.200000003" stroke-width="0.84375" transform="matrix(-1,0,0,1,47,0)" />
	<g id="Frame" clip-path="url(#clipPath_5)" customFrame="url(#clipPath_5)">
		<rect id="Frame" width="20.000000" height="20.000000" x="0.000000" y="0.000000" fill="rgb(255,255,255)" fill-opacity="0" transform="matrix(-1,0,0,1,33.5,13.5)" />
		<path id="Vector" d="M13.3333 0L0 0" fill-rule="nonzero" stroke="rgb(0,43,85)" stroke-width="1.265625" transform="matrix(-1,0,0,1,30.1665,23.4999)" />
		<path id="Vector" d="M8.34465e-05 8.33333C8.34465e-05 8.33333 4.16667 5.26467 4.16667 4.16667C4.16667 3.06867 0 0 0 0" fill-rule="nonzero" stroke="rgb(0,43,85)" stroke-width="1.265625" transform="matrix(-1,0,0,1,21,19.3334)" />
	</g>
</svg>
