<svg viewBox="0 0 24 24" xmlns="http://www.w3.org/2000/svg" xmlns:xlink="http://www.w3.org/1999/xlink" width="24.000000" height="24.000000" fill="none">
	<rect id="Frame" width="24.000000" height="24.000000" x="0.000000" y="0.000000" fill="rgb(255,255,255)" fill-opacity="0" />
	<path id="Vector" d="M19 9C19 5.13401 15.866 2 12 2C8.134 2 5 5.13401 5 9C5 12.866 8.134 16 12 16C15.866 16 19 12.866 19 9Z" fill-rule="nonzero" stroke="rgb(26,26,26)" stroke-linecap="round" stroke-linejoin="round" stroke-width="1.5" />
	<path id="Vector" d="M19 9C19 5.13401 15.866 2 12 2C8.134 2 5 5.13401 5 9C5 12.866 8.134 16 12 16C15.866 16 19 12.866 19 9Z" fill-rule="nonzero" stroke="rgb(0,0,0)" stroke-opacity="0.200000003" stroke-linecap="round" stroke-linejoin="round" stroke-width="1.5" />
	<path id="Vector" d="M1 22C2.11466 20.1758 3.71805 18.661 5.64896 17.6078C7.57988 16.5545 9.77028 16 12 16C14.2297 16 16.42 16.5545 18.351 17.6078C20.2819 18.661 21.8852 20.1758 23 22" fill-rule="nonzero" stroke="rgb(26,26,26)" stroke-linecap="round" stroke-linejoin="round" stroke-width="1.5" />
	<path id="Vector" d="M1 22C2.11466 20.1758 3.71805 18.661 5.64896 17.6078C7.57988 16.5545 9.77028 16 12 16C14.2297 16 16.42 16.5545 18.351 17.6078C20.2819 18.661 21.8852 20.1758 23 22" fill-rule="nonzero" stroke="rgb(0,0,0)" stroke-opacity="0.200000003" stroke-linecap="round" stroke-linejoin="round" stroke-width="1.5" />
</svg>
