<svg viewBox="0 0 51 71.9849" xmlns="http://www.w3.org/2000/svg" xmlns:xlink="http://www.w3.org/1999/xlink" width="51.000000" height="71.984863" fill="none" customFrame="#000000">
	<g id="Group 480">
		<path id="Vector" d="M25.5 1C27.9066 1 30.1074 2.23981 34.5087 4.71942L40.6337 8.17014C45.2022 10.744 47.4867 12.031 48.7432 14.1832C50 16.3355 50 18.9605 50 24.2105L50 30.2894C50 35.5394 50 38.1644 48.7432 40.3169C47.4867 42.4691 45.2022 43.756 40.6337 46.3299L34.5087 49.7806C30.1074 52.2603 27.9066 53.5 25.5 53.5C23.0934 53.5 20.8926 52.2603 16.4915 49.7806L10.3665 46.3299C5.79784 43.756 3.51353 42.4691 2.25678 40.3169C1 38.1644 1 35.5394 1 30.2894L1 24.2105C1 18.9605 1 16.3355 2.25678 14.1832C3.51353 12.031 5.79784 10.744 10.3665 8.17014L16.4915 4.71942C20.8926 2.23981 23.0934 1 25.5 1Z" fill-rule="nonzero" stroke="rgb(26,26,26)" stroke-linejoin="round" stroke-width="2" />
		<path id="Vector" d="M25.5 1C27.9066 1 30.1074 2.23981 34.5087 4.71942L40.6337 8.17014C45.2022 10.744 47.4867 12.031 48.7432 14.1832C50 16.3355 50 18.9605 50 24.2105L50 30.2894C50 35.5394 50 38.1644 48.7432 40.3169C47.4867 42.4691 45.2022 43.756 40.6337 46.3299L34.5087 49.7806C30.1074 52.2603 27.9066 53.5 25.5 53.5C23.0934 53.5 20.8926 52.2603 16.4915 49.7806L10.3665 46.3299C5.79784 43.756 3.51353 42.4691 2.25678 40.3169C1 38.1644 1 35.5394 1 30.2894L1 24.2105C1 18.9605 1 16.3355 2.25678 14.1832C3.51353 12.031 5.79784 10.744 10.3665 8.17014L16.4915 4.71942C20.8926 2.23981 23.0934 1 25.5 1Z" fill-rule="nonzero" stroke="rgb(0,0,0)" stroke-opacity="0.200000003" stroke-linejoin="round" stroke-width="2" />
		<path id="Vector" d="M15 29.5835C15 29.5835 17.625 29.5835 20.25 34.25C20.25 34.25 28.5884 22.5833 36 20.25" fill-rule="nonzero" stroke="rgb(26,26,26)" stroke-width="2" />
		<path id="Vector" d="M15 29.5835C15 29.5835 17.625 29.5835 20.25 34.25C20.25 34.25 28.5884 22.5833 36 20.25" fill-rule="nonzero" stroke="rgb(0,0,0)" stroke-opacity="0.200000003" stroke-width="2" />
		<path id="Vector" d="M42.5888 46.5L44.9345 57.7346C46.4416 64.953 47.1951 68.5622 45.6471 70.2731C44.0994 71.9835 41.411 70.5121 36.0347 67.5693L28.0774 63.2136C26.8069 62.5181 26.1717 62.1706 25.5 62.1706C24.8284 62.1706 24.1931 62.5181 22.9226 63.2136L14.9653 67.5693C9.5889 70.5121 6.90072 71.9835 5.35278 70.2731C3.80487 68.5622 4.55842 64.953 6.06559 57.7346L8.41132 46.5" fill-rule="nonzero" stroke="rgb(26,26,26)" stroke-width="2" />
		<path id="Vector" d="M42.5888 46.5L44.9345 57.7346C46.4416 64.953 47.1951 68.5622 45.6471 70.2731C44.0994 71.9835 41.411 70.5121 36.0347 67.5693L28.0774 63.2136C26.8069 62.5181 26.1717 62.1706 25.5 62.1706C24.8284 62.1706 24.1931 62.5181 22.9226 63.2136L14.9653 67.5693C9.5889 70.5121 6.90072 71.9835 5.35278 70.2731C3.80487 68.5622 4.55842 64.953 6.06559 57.7346L8.41132 46.5" fill-rule="nonzero" stroke="rgb(0,0,0)" stroke-opacity="0.200000003" stroke-width="2" />
	</g>
</svg>
