<svg viewBox="0 0 70 70" xmlns="http://www.w3.org/2000/svg" xmlns:xlink="http://www.w3.org/1999/xlink" width="70.000000" height="70.000000" fill="none">
	<rect id="Frame" width="70.000000" height="70.000000" x="0.000000" y="0.000000" fill="rgb(255,255,255)" fill-opacity="0" />
	<path id="Vector" d="M63.9378 16.137C62.7127 13.9992 62.1002 12.9302 61.0578 12.504C60.0155 12.0778 58.8366 12.4141 56.4791 13.0868L52.4743 14.221C50.9692 14.57 49.3899 14.372 48.0157 13.662L46.9099 13.0206C45.7314 12.2616 44.8249 11.1426 44.323 9.82722L43.2272 6.53587C42.5064 4.3578 42.1461 3.26877 41.2881 2.64586C40.4305 2.02295 39.291 2.02295 37.012 2.02295L33.3531 2.02295C31.0744 2.02295 29.9349 2.02295 29.077 2.64586C28.2192 3.26877 27.8589 4.3578 27.1382 6.53587L26.0421 9.82722C25.5404 11.1426 24.6339 12.2616 23.4554 13.0206L22.3497 13.662C20.9754 14.372 19.3962 14.57 17.891 14.221L13.8862 13.0868C11.5286 12.4141 10.3498 12.0778 9.30746 12.504C8.26515 12.9302 7.65259 13.9992 6.42741 16.137L4.80745 18.9638C3.65903 20.9677 3.08481 21.9697 3.19627 23.0363C3.30769 24.1029 4.07641 24.9625 5.61382 26.6816L8.99774 30.4854C9.82481 31.5381 10.412 33.3729 10.412 35.0226C10.412 36.6729 9.82501 38.5071 8.99784 39.5601L5.61382 43.364C4.07641 45.0833 3.30772 45.9426 3.19627 47.0095C3.08481 48.0761 3.65903 49.078 4.80745 51.0817L6.42737 53.9085C7.65253 56.0463 8.26515 57.1155 9.30746 57.5415C10.3498 57.9678 11.5286 57.6316 13.8862 56.9587L17.8909 55.8245C19.3963 55.4754 20.9758 55.6737 22.3503 56.3839L23.4558 57.0254C24.6341 57.7844 25.5404 58.9031 26.042 60.2184L27.1382 63.5102C27.8589 65.6882 28.2192 66.7772 29.077 67.4002C29.9349 68.0229 31.0744 68.0229 33.3531 68.0229L37.012 68.0229C39.291 68.0229 40.4305 68.0229 41.2881 67.4002C42.1461 66.7772 42.5064 65.6882 43.2272 63.5102L44.3234 60.2184C44.8249 58.9031 45.731 57.7844 46.9096 57.0254L48.015 56.3839C49.3895 55.6737 50.9688 55.4754 52.4743 55.8245L56.4791 56.9587C58.8366 57.6316 60.0155 57.9678 61.0578 57.5415C62.1002 57.1155 62.7127 56.0463 63.9378 53.9085L65.5579 51.0817C66.7062 49.078 67.2803 48.0761 67.169 47.0095C67.0574 45.9426 66.2888 45.0833 64.7515 43.364L61.3673 39.5601C60.5403 38.5071 59.9531 36.6729 59.9531 35.0226C59.9531 33.3729 60.5406 31.5381 61.3673 30.4854L64.7515 26.6816C66.2888 24.9625 67.0574 24.1029 67.169 23.0363C67.2803 21.9697 66.7062 20.9677 65.5579 18.9638L63.9378 16.137Z" fill-rule="nonzero" stroke="rgb(176,221,29)" stroke-linecap="round" stroke-width="2" />
	<path id="Vector" d="M24.1826 48.0229C26.3783 44.0446 30.4822 41.3678 35.1827 41.3678C39.8828 41.3678 43.9867 44.0446 46.1826 48.0229M35.1827 33.1994C31.7111 33.1994 28.897 30.2498 28.897 26.6112C28.897 22.9726 31.7111 20.0229 35.1827 20.0229C38.6543 20.0229 41.4684 22.9726 41.4684 26.6112C41.4684 30.2498 38.6543 33.1994 35.1827 33.1994Z" fill-rule="nonzero" stroke="rgb(176,221,29)" stroke-width="2" />
</svg>
