<svg viewBox="0 0 70 70" xmlns="http://www.w3.org/2000/svg" xmlns:xlink="http://www.w3.org/1999/xlink" width="70.000000" height="70.000000" fill="none">
	<rect id="Frame" width="70.000000" height="70.000000" x="0.000000" y="0.000000" fill="rgb(255,255,255)" fill-opacity="0" />
	<g id="Group 484">
		<path id="Vector" d="M11.8999 48.1998L28.3999 38.2998M41.5998 31.6998L58.0998 21.7999M34.9998 11.8999L34.9998 28.3999M34.9998 41.5998L34.9998 58.0998M11.8999 21.7999L28.3999 31.6998M41.5998 38.2998L58.0998 48.1998" fill-rule="nonzero" stroke="rgb(26,26,26)" stroke-linejoin="round" stroke-width="2" />
		<path id="Vector" d="M11.8999 48.1998L28.3999 38.2998M41.5998 31.6998L58.0998 21.7999M34.9998 11.8999L34.9998 28.3999M34.9998 41.5998L34.9998 58.0998M11.8999 21.7999L28.3999 31.6998M41.5998 38.2998L58.0998 48.1998" fill-rule="nonzero" stroke="rgb(0,0,0)" stroke-opacity="0.200000003" stroke-linejoin="round" stroke-width="2" />
		<path id="Vector" d="M63.05 25.0999L63.05 43.2499M39.9501 63.0498L58.1 53.1498M10.2502 53.1498L30.0501 63.0498M6.9502 44.8998L6.9502 25.0999M10.2502 16.8499L30.0501 6.94995M59.75 16.8499L39.9501 6.94995" fill-rule="nonzero" stroke="rgb(26,26,26)" stroke-linejoin="round" stroke-width="2" />
		<path id="Vector" d="M63.05 25.0999L63.05 43.2499M39.9501 63.0498L58.1 53.1498M10.2502 53.1498L30.0501 63.0498M6.9502 44.8998L6.9502 25.0999M10.2502 16.8499L30.0501 6.94995M59.75 16.8499L39.9501 6.94995" fill-rule="nonzero" stroke="rgb(0,0,0)" stroke-opacity="0.200000003" stroke-linejoin="round" stroke-width="2" />
		<path id="Vector" d="M34.9998 11.9C32.266 11.9 30.0498 9.68379 30.0498 6.94999C30.0498 4.21618 32.266 2 34.9998 2C37.7336 2 39.9498 4.21618 39.9498 6.94999C39.9498 9.68379 37.7336 11.9 34.9998 11.9Z" stroke="rgb(26,26,26)" stroke-linejoin="round" stroke-width="2" />
		<path id="Vector" d="M34.9998 11.9C32.266 11.9 30.0498 9.68379 30.0498 6.94999C30.0498 4.21618 32.266 2 34.9998 2C37.7336 2 39.9498 4.21618 39.9498 6.94999C39.9498 9.68379 37.7336 11.9 34.9998 11.9Z" stroke="rgb(0,0,0)" stroke-opacity="0.200000003" stroke-linejoin="round" stroke-width="2" />
		<path id="Vector" d="M34.9998 68.0001C32.266 68.0001 30.0498 65.7839 30.0498 63.0501C30.0498 60.3163 32.266 58.1001 34.9998 58.1001C37.7336 58.1001 39.9498 60.3163 39.9498 63.0501C39.9498 65.7839 37.7336 68.0001 34.9998 68.0001Z" stroke="rgb(26,26,26)" stroke-linejoin="round" stroke-width="2" />
		<path id="Vector" d="M34.9998 68.0001C32.266 68.0001 30.0498 65.7839 30.0498 63.0501C30.0498 60.3163 32.266 58.1001 34.9998 58.1001C37.7336 58.1001 39.9498 60.3163 39.9498 63.0501C39.9498 65.7839 37.7336 68.0001 34.9998 68.0001Z" stroke="rgb(0,0,0)" stroke-opacity="0.200000003" stroke-linejoin="round" stroke-width="2" />
		<path id="Vector" d="M6.94999 25.0999C4.21618 25.0999 2 22.8837 2 20.1499C2 17.4161 4.21618 15.2 6.94999 15.2C9.68379 15.2 11.9 17.4161 11.9 20.1499C11.9 22.8837 9.68379 25.0999 6.94999 25.0999Z" stroke="rgb(26,26,26)" stroke-linejoin="round" stroke-width="2" />
		<path id="Vector" d="M6.94999 25.0999C4.21618 25.0999 2 22.8837 2 20.1499C2 17.4161 4.21618 15.2 6.94999 15.2C9.68379 15.2 11.9 17.4161 11.9 20.1499C11.9 22.8837 9.68379 25.0999 6.94999 25.0999Z" stroke="rgb(0,0,0)" stroke-opacity="0.200000003" stroke-linejoin="round" stroke-width="2" />
		<path id="Vector" d="M63.0501 25.0999C60.3163 25.0999 58.1001 22.8837 58.1001 20.1499C58.1001 17.4161 60.3163 15.2 63.0501 15.2C65.7839 15.2 68.0001 17.4161 68.0001 20.1499C68.0001 22.8837 65.7839 25.0999 63.0501 25.0999Z" stroke="rgb(26,26,26)" stroke-linejoin="round" stroke-width="2" />
		<path id="Vector" d="M63.0501 25.0999C60.3163 25.0999 58.1001 22.8837 58.1001 20.1499C58.1001 17.4161 60.3163 15.2 63.0501 15.2C65.7839 15.2 68.0001 17.4161 68.0001 20.1499C68.0001 22.8837 65.7839 25.0999 63.0501 25.0999Z" stroke="rgb(0,0,0)" stroke-opacity="0.200000003" stroke-linejoin="round" stroke-width="2" />
		<path id="Vector" d="M63.0501 54.7999C60.3163 54.7999 58.1001 52.5837 58.1001 49.8499C58.1001 47.1161 60.3163 44.8999 63.0501 44.8999C65.7839 44.8999 68.0001 47.1161 68.0001 49.8499C68.0001 52.5837 65.7839 54.7999 63.0501 54.7999Z" stroke="rgb(26,26,26)" stroke-linejoin="round" stroke-width="2" />
		<path id="Vector" d="M63.0501 54.7999C60.3163 54.7999 58.1001 52.5837 58.1001 49.8499C58.1001 47.1161 60.3163 44.8999 63.0501 44.8999C65.7839 44.8999 68.0001 47.1161 68.0001 49.8499C68.0001 52.5837 65.7839 54.7999 63.0501 54.7999Z" stroke="rgb(0,0,0)" stroke-opacity="0.200000003" stroke-linejoin="round" stroke-width="2" />
		<path id="Vector" d="M6.94999 54.7999C4.21618 54.7999 2 52.5837 2 49.8499C2 47.1161 4.21618 44.8999 6.94999 44.8999C9.68379 44.8999 11.9 47.1161 11.9 49.8499C11.9 52.5837 9.68379 54.7999 6.94999 54.7999Z" stroke="rgb(26,26,26)" stroke-linejoin="round" stroke-width="2" />
		<path id="Vector" d="M6.94999 54.7999C4.21618 54.7999 2 52.5837 2 49.8499C2 47.1161 4.21618 44.8999 6.94999 44.8999C9.68379 44.8999 11.9 47.1161 11.9 49.8499C11.9 52.5837 9.68379 54.7999 6.94999 54.7999Z" stroke="rgb(0,0,0)" stroke-opacity="0.200000003" stroke-linejoin="round" stroke-width="2" />
		<path id="Vector" d="M41.6004 31.2874L41.6004 38.7124L35.0004 42.4249L28.4004 38.7124L28.4004 31.2874L35.0004 27.575L41.6004 31.2874Z" fill-rule="nonzero" stroke="rgb(26,26,26)" stroke-linejoin="round" stroke-width="2" />
		<path id="Vector" d="M41.6004 31.2874L41.6004 38.7124L35.0004 42.4249L28.4004 38.7124L28.4004 31.2874L35.0004 27.575L41.6004 31.2874Z" fill-rule="nonzero" stroke="rgb(0,0,0)" stroke-opacity="0.200000003" stroke-linejoin="round" stroke-width="2" />
	</g>
</svg>
