<svg viewBox="0 0 111.648 127.841" xmlns="http://www.w3.org/2000/svg" xmlns:xlink="http://www.w3.org/1999/xlink" width="111.647949" height="127.840820" fill="none">
	<rect id="Frame" width="111.647720" height="127.840904" x="0.000000" y="0.000000" fill="rgb(255,255,255)" fill-opacity="0" />
	<g id="Group">
		<path id="Vector" d="M12.0538 107.504C8.23631 102.812 5.17711 97.4923 3.11149 91.7004C1.09817 86.092 0 80.0904 0 73.853L0 53.7779C0 47.9861 0.78441 42.5873 2.2225 37.6602C3.73902 32.4973 6.01381 27.8586 8.86384 23.7178L10.6941 24.9757C7.94869 28.9331 5.80464 33.3622 4.36655 38.2892C2.98076 43.0066 2.2225 48.1695 2.2225 53.7779L2.2225 73.853C2.2225 79.8546 3.26838 85.594 5.17711 90.9404C7.16428 96.4964 10.0927 101.607 13.7533 106.088L12.0538 107.504ZM102.287 23.7178C105.294 28.0682 107.647 32.9167 109.242 38.0534C110.785 43.0328 111.622 48.3268 111.622 53.7779L111.622 73.853C111.622 80.0904 110.523 86.092 108.536 91.7004C106.471 97.4923 103.411 102.839 99.5939 107.504L97.8944 106.088C101.555 101.607 104.483 96.4964 106.471 90.9404C108.379 85.594 109.425 79.8546 109.425 73.853L109.425 53.7779C109.425 48.5364 108.615 43.4783 107.15 38.7085C105.608 33.7815 103.359 29.1428 100.483 24.9757L102.287 23.7178Z" fill="rgb(0,43,85)" fill-rule="nonzero" />
		<path id="Vector" d="M24.2124 50.9736L87.4359 50.9736L87.4359 52.913L24.2124 52.913L24.2124 50.9736Z" fill="rgb(0,43,85)" fill-rule="evenodd" />
		<path id="Vector" d="M27.8206 37.1888L31.0366 34.5942L34.2527 37.1888L34.2527 57.7356L27.8206 57.7356L27.8206 37.1888ZM36.083 32.419L39.2991 29.8244L42.5152 32.419L42.5152 57.7356L36.083 57.7356L36.083 32.419ZM44.3455 27.5706L47.5615 24.976L50.7776 27.5706L50.7776 57.7618L44.3455 57.7618L44.3455 27.5706ZM52.6079 22.7484L55.824 20.1538L59.0401 22.7484L59.0401 57.7356L52.6079 57.7356L52.6079 22.7484ZM60.8704 27.5706L64.0865 24.976L67.3025 27.5706L67.3025 57.7618L60.8704 57.7618L60.8704 27.5706ZM69.159 32.419L72.375 29.8244L75.5911 32.419L75.5911 57.7356L69.159 57.7356L69.159 32.419ZM77.4214 37.1888L80.6375 34.5942L83.8536 37.1888L83.8536 57.7356L77.4214 57.7356L77.4214 37.1888ZM85.6839 41.9586L88.9 39.364L92.116 41.9586L92.116 57.7356L85.6839 57.7356L85.6839 41.9586ZM19.5581 41.9586L22.7742 39.364L25.9903 41.9586L25.9903 57.7356L19.5581 57.7356L19.5581 41.9586Z" fill="rgb(0,43,85)" fill-rule="evenodd" />
		<path id="Vector" d="M19.5322 56.0059L92.0902 56.0059L92.0902 58.1025L19.5322 58.1025L19.5322 56.0059Z" fill="rgb(176,221,29)" fill-rule="evenodd" />
		<path id="Vector" d="M24.2124 45.4966L87.4359 45.4966L87.4359 47.4359L24.2124 47.4359L24.2124 45.4966Z" fill="rgb(0,43,85)" fill-rule="evenodd" />
		<path id="Vector" d="M32.7622 40.019L78.8855 40.019L78.8855 41.9584L32.7622 41.9584L32.7622 40.019Z" fill="rgb(0,43,85)" fill-rule="evenodd" />
		<path id="Vector" d="M39.9526 34.5415L71.6951 34.5415L71.6951 36.4809L39.9526 36.4809L39.9526 34.5415Z" fill="rgb(0,43,85)" fill-rule="evenodd" />
		<path id="Vector" d="M46.9341 29.064L64.7141 29.064L64.7141 31.0033L46.9341 31.0033L46.9341 29.064Z" fill="rgb(0,43,85)" fill-rule="evenodd" />
		<path id="Vector" d="M24.9706 90.023L18.4077 98.4094L30.5661 98.4094C44.0841 98.4094 50.8823 93.4824 50.8823 83.6021L50.8823 65.8071L40.7896 65.8071L40.7896 83.6021C40.7896 88.2671 38.2533 90.023 30.5922 90.023L24.9706 90.023Z" fill="rgb(176,221,29)" fill-rule="nonzero" />
		<path id="Vector" d="M56.5298 65.8071L56.5298 98.4094L66.6487 98.4094L66.6487 86.4587L85.0039 86.4587L91.1484 78.5178L66.6487 78.5178L66.6487 74.2722L86.4681 74.2722L92.9787 65.8071L56.5298 65.8071Z" fill="rgb(0,43,85)" fill-rule="nonzero" />
		<path id="Vector" d="M99.2804 20.6515C99.4634 20.4942 99.5942 20.2845 99.6465 20.1011C99.6988 19.8914 99.6203 19.6556 99.385 19.4197L98.9143 18.8693L95.4629 21.857L96.012 22.486C96.1166 22.617 96.2212 22.6957 96.3258 22.7219C96.4304 22.7481 96.535 22.7743 96.6396 22.7481C96.7441 22.7219 96.8487 22.6957 96.9533 22.617C97.0579 22.5646 97.1625 22.486 97.2409 22.3812L99.2804 20.6515ZM100.065 19.0266C100.196 19.1838 100.3 19.3411 100.352 19.5245C100.431 19.708 100.457 19.8914 100.457 20.0749C100.457 20.2583 100.431 20.4418 100.352 20.6252C100.274 20.8087 100.169 20.966 100.013 21.097L97.6593 23.1412C97.2932 23.4557 96.9533 23.6129 96.5873 23.6129C96.2212 23.6129 95.9074 23.4557 95.646 23.1674L94.3909 21.726L98.9405 17.7686L100.065 19.0266ZM94.4955 14.4402L93.1358 15.8817L94.1556 16.8514L93.6326 17.4017L92.6129 16.432L91.3578 17.7686L92.6129 18.948L92.1161 19.4721L90.2858 17.7424L94.4171 13.3395L96.2473 15.0692L95.7244 15.6196L94.4955 14.4402ZM90.5996 10.4567L91.2533 10.9546L87.5927 15.7768L86.939 15.2789L90.5996 10.4567ZM82.128 12.2912L85.2918 7.12831L87.4358 8.4649L87.0436 9.09388L85.5794 8.20282L84.5335 9.90632L85.7362 10.6401L85.344 11.2691L84.1413 10.5353L82.8078 12.7105L82.128 12.2912ZM80.533 4.97928L81.2913 5.26757L79.0949 10.9022L78.3366 10.6139L80.533 4.97928ZM73.7086 8.85802L75.199 3.77373L74.2316 3.48545L74.4407 2.77784L77.16 3.56407L76.9509 4.27168L75.9834 3.98339L74.493 9.06768L73.7086 8.85802ZM70.754 2.51577C70.7279 2.51577 70.6756 2.48956 70.6494 2.48956C70.6233 2.48956 70.571 2.46335 70.5448 2.46335C70.4925 2.43714 70.4403 2.43714 70.3618 2.41093C70.3095 2.38473 70.2311 2.38473 70.1788 2.35852L69.865 2.3061C69.7604 2.2799 69.6297 2.2799 69.4989 2.25369C69.3682 2.25369 69.2375 2.25369 69.1329 2.3061C69.0022 2.33231 68.8976 2.41093 68.8191 2.48956C68.7146 2.59439 68.6623 2.72543 68.6361 2.90888C68.61 3.01371 68.6361 3.11854 68.7407 3.27579C68.8191 3.43303 68.9237 3.59028 69.0545 3.79994C69.1852 3.98339 69.3159 4.19305 69.4728 4.40272C69.6297 4.61238 69.7604 4.84825 69.8912 5.05791C70.0219 5.29378 70.1003 5.50344 70.1788 5.7131C70.2572 5.92276 70.2572 6.13242 70.2311 6.31587C70.1788 6.57795 70.1003 6.78761 69.9696 6.97107C69.8389 7.12831 69.7081 7.25935 69.5251 7.36418C69.3421 7.4428 69.159 7.49522 68.9237 7.52143C68.7146 7.54763 68.4792 7.52143 68.2439 7.46901C68.1132 7.4428 67.9824 7.4166 67.8517 7.36418C67.7471 7.33797 67.6164 7.28556 67.4856 7.20693C67.3549 7.15452 67.2242 7.0759 67.0934 6.97107L67.198 6.28967C67.3288 6.36829 67.4595 6.44691 67.5902 6.49933C67.6948 6.55174 67.7994 6.60416 67.904 6.65657C68.0086 6.70899 68.1132 6.7352 68.1655 6.7352C68.3223 6.7614 68.4531 6.78761 68.61 6.78761C68.7407 6.78761 68.8714 6.78761 68.976 6.7352C69.0806 6.70899 69.1852 6.63037 69.2636 6.52554C69.3421 6.4207 69.3944 6.28967 69.4205 6.13242C69.4467 6.00138 69.4205 5.87034 69.3421 5.68689C69.2636 5.52964 69.159 5.34619 69.0283 5.16274C68.8976 4.97928 68.7407 4.79583 68.5838 4.58617C68.4269 4.37651 68.2962 4.16685 68.1655 3.95719C68.0347 3.74752 67.9301 3.53786 67.8778 3.3282C67.7994 3.11854 67.7994 2.88267 67.8517 2.67301C67.8778 2.51576 67.9563 2.35852 68.0347 2.17507C68.1132 2.01782 68.2439 1.86057 68.4008 1.72954C68.5577 1.5985 68.7407 1.49367 68.9499 1.44125C69.159 1.38884 69.3944 1.36263 69.682 1.44125C69.7604 1.44125 69.8389 1.46746 69.9435 1.49367C70.048 1.51987 70.1526 1.54608 70.2834 1.57229C70.4141 1.5985 70.5187 1.62471 70.6233 1.67712C70.7279 1.70333 70.8586 1.72954 70.937 1.78195L70.754 2.51577ZM62.0732 6.49933C61.864 6.47312 61.6549 6.4207 61.4718 6.34208C61.2888 6.26346 61.1058 6.15863 60.975 6.00138C60.8443 5.87034 60.7136 5.68689 60.6613 5.47723C60.5828 5.26757 60.5567 5.0317 60.609 4.74341L61.1581 0.261907L61.9686 0.366738L61.4195 4.84825C61.3934 5.08411 61.4195 5.29378 61.5241 5.45102C61.6287 5.60827 61.8379 5.7131 62.1516 5.76551C62.4916 5.79172 62.7007 5.73931 62.8576 5.60827C62.9883 5.47723 63.0668 5.29378 63.1191 5.05791L63.6682 0.576399L64.4787 0.68123L63.9296 5.21515C63.9035 5.47723 63.8251 5.7131 63.6943 5.89655C63.5636 6.08 63.4328 6.21104 63.2498 6.31587C63.0668 6.4207 62.8838 6.47312 62.6746 6.52554C62.4916 6.52554 62.2824 6.52554 62.0732 6.49933ZM53.7323 4.79583L54.5429 4.76962C54.5429 4.92687 54.569 5.05791 54.5952 5.16274C54.6213 5.24136 54.6736 5.31998 54.752 5.3724C54.8043 5.42481 54.9089 5.42481 55.0135 5.45102C55.1181 5.45102 55.2488 5.45102 55.4057 5.47723C55.7456 5.45102 55.9548 5.39861 56.0855 5.29378C56.1901 5.18895 56.2686 5.00549 56.2424 4.74341L56.0594 0.0784537L56.8961 0.0522461L57.0791 4.90066C57.0791 5.11032 57.053 5.31998 56.9745 5.47723C56.8961 5.63448 56.7915 5.76551 56.6608 5.87034C56.53 5.97517 56.347 6.0538 56.164 6.10621C55.981 6.15863 55.7718 6.18484 55.5365 6.21104C55.0135 6.23725 54.569 6.15863 54.2552 5.97517C53.9415 5.81793 53.7585 5.50344 53.7585 5.05791L53.7323 4.79583ZM46.1758 1.46746C45.9667 1.49367 45.8098 1.51987 45.679 1.57229C45.5483 1.62471 45.4699 1.67712 45.3914 1.75574C45.3391 1.83437 45.2868 1.9392 45.2868 2.04403C45.2607 2.17507 45.2868 2.3061 45.2868 2.48956L45.6267 5.45102C45.6529 5.7131 45.7313 5.89655 45.8882 6.00138C46.0451 6.13242 46.3066 6.15863 46.6726 6.13242C46.8556 6.10621 47.0125 6.08 47.1433 6.00138C47.274 5.94897 47.3524 5.87034 47.4047 5.79172C47.457 5.7131 47.5093 5.60827 47.5355 5.50344C47.5616 5.39861 47.5616 5.26757 47.5355 5.16274L47.4047 4.08822L46.8818 4.14064L46.8034 3.48545L48.1369 3.3282L48.5291 6.57795L48.2153 6.60416L48.0061 6.23725C47.9277 6.36829 47.8231 6.44691 47.7446 6.52554C47.6401 6.60416 47.5355 6.65657 47.4309 6.68278C47.3263 6.7352 47.2217 6.7614 47.1171 6.7614C47.0125 6.78761 46.8818 6.78761 46.7772 6.81382C46.568 6.84003 46.3589 6.84003 46.1235 6.84003C45.9144 6.81382 45.7052 6.78761 45.5222 6.70899C45.3391 6.63037 45.1822 6.49933 45.0515 6.34208C44.9208 6.18484 44.8423 5.97517 44.8162 5.68689L44.4501 2.51577C44.3978 2.17507 44.424 1.88678 44.5024 1.65091C44.5809 1.44125 44.6854 1.2578 44.8423 1.12676C44.9992 0.995722 45.1822 0.890891 45.3914 0.838476C45.6006 0.78606 45.8359 0.733645 46.0712 0.707437C46.3066 0.68123 46.5419 0.68123 46.7511 0.68123C46.9602 0.707437 47.1694 0.759853 47.3524 0.838476C47.5355 0.943306 47.6662 1.07434 47.7969 1.2578C47.9277 1.44125 47.98 1.67712 48.0323 1.99161L47.2478 2.09644C47.2217 1.9392 47.1956 1.80816 47.1433 1.72954C47.091 1.62471 47.0387 1.57229 46.9341 1.51987C46.8556 1.46746 46.7511 1.44125 46.6203 1.44125C46.5157 1.44125 46.3589 1.44125 46.1758 1.46746ZM39.4299 2.14886L40.2143 1.91299L41.8877 7.73109L41.0249 7.99316L38.1487 4.55996L39.2992 8.51732L38.5148 8.75319L36.8152 2.88267L37.678 2.6206L40.6327 6.34208L39.4299 2.14886ZM32.4225 4.42892L33.1808 4.14064L35.351 9.77528L34.5927 10.0636L32.4225 4.42892ZM27.7683 9.95874C27.5069 9.40838 27.35 8.91043 27.2977 8.49111C27.2454 8.07179 27.2715 7.70488 27.35 7.39039C27.4284 7.0759 27.5853 6.81382 27.7422 6.63037C27.9252 6.4207 28.1082 6.28967 28.2651 6.21104C28.3697 6.15863 28.4743 6.10621 28.5789 6.0538C28.6835 6.00138 28.7881 5.97517 28.8927 5.92276L29.2064 6.55174C29.1541 6.57795 29.1018 6.60416 29.0234 6.63037C28.9449 6.65657 28.8927 6.70899 28.8404 6.7352C28.5789 6.86623 28.3697 7.02348 28.239 7.23314C28.1082 7.4428 28.0298 7.65246 28.0037 7.88833C27.9775 8.1242 28.0037 8.38628 28.0821 8.67456C28.1605 8.96284 28.2651 9.25113 28.422 9.53941C28.5789 9.8277 28.7358 10.0898 28.9188 10.3256C29.1018 10.5353 29.311 10.7188 29.5202 10.8498C29.7294 10.9808 29.9647 11.0595 30.2262 11.0595C30.4615 11.0857 30.7229 11.007 30.9844 10.9022C31.0367 10.876 31.089 10.8498 31.1413 10.8236C31.1936 10.7974 31.2459 10.7712 31.272 10.745L31.5858 11.374C31.5596 11.4002 31.5596 11.4002 31.5335 11.4002C31.5074 11.4002 31.4812 11.4264 31.4812 11.4526C31.4551 11.4788 31.4028 11.505 31.3243 11.5312C31.272 11.5574 31.1936 11.5836 31.1151 11.636C30.8798 11.7671 30.5922 11.8195 30.3046 11.8457C30.017 11.8457 29.7032 11.7933 29.3894 11.6622C29.0757 11.5312 28.7881 11.3477 28.5004 11.0595C28.2651 10.7974 28.0037 10.4305 27.7683 9.95874ZM22.5389 9.487L23.2188 9.06768L26.3825 14.2306L25.6243 14.6761L21.9375 12.134L24.0816 15.6458L23.4018 16.0651L20.238 10.9022L20.9963 10.4305L24.8399 13.2347L22.5389 9.487ZM16.1068 15.4361L17.4664 16.8776L18.4861 15.9079L19.0091 16.4582L17.9894 17.4279L19.2444 18.7645L20.4995 17.5852L20.9963 18.1093L19.1398 19.839L14.9824 15.4361L16.8127 13.7064L17.3357 14.2568L16.1068 15.4361ZM15.2701 24.006L10.6943 20.0487L12.3416 18.1355L12.9168 18.6335L11.7925 19.9439L13.2829 21.228L14.198 20.1535L14.7733 20.6515L13.8581 21.6998L15.793 23.3771L15.2701 24.006Z" fill="rgb(0,43,85)" fill-rule="nonzero" />
		<path id="Vector" d="M94.0507 108.552C93.8677 108.368 93.6847 108.237 93.4755 108.211C93.2663 108.159 93.031 108.264 92.7957 108.473L92.2466 108.945L95.2796 112.352L95.9072 111.802C96.0379 111.697 96.1164 111.592 96.1425 111.487C96.1686 111.382 96.1948 111.278 96.1686 111.173C96.1425 111.068 96.0902 110.963 96.0379 110.858C95.9595 110.753 95.9072 110.649 95.8026 110.57L94.0507 108.552ZM92.4296 107.818C92.5865 107.687 92.7434 107.582 92.9264 107.504C93.1095 107.425 93.2925 107.399 93.4755 107.399C93.6585 107.399 93.8416 107.425 94.0246 107.504C94.2076 107.582 94.3645 107.687 94.4952 107.844L96.587 110.177C96.9008 110.518 97.0576 110.884 97.0576 111.251C97.0576 111.618 96.9269 111.933 96.6131 112.195L95.2012 113.479L91.1746 108.971L92.4296 107.818ZM88.2722 112.169L89.4227 113.767L90.547 112.955L90.9915 113.558L89.8672 114.37L90.9392 115.864L92.325 114.868L92.7434 115.445L90.7039 116.912L87.1741 112.011L89.2135 110.544L89.658 111.147L88.2722 112.169ZM84.141 113.951L84.847 113.531L87.88 118.747L87.1741 119.166L84.141 113.951ZM82.1539 121.787L79.6176 116.309L81.9185 115.235L82.2323 115.916L80.6896 116.65L81.5263 118.458L82.8075 117.882L83.1213 118.563L81.8401 119.14L82.9121 121.472L82.1539 121.787ZM76.0616 117.803L76.8199 117.489L79.0947 123.097L78.3364 123.412L76.0616 117.803ZM73.6561 124.984L72.0873 119.926L71.146 120.214L70.9368 119.507L73.6299 118.668L73.8391 119.376L72.8717 119.664L74.4405 124.722L73.6561 124.984ZM68.5051 120.817C68.479 120.817 68.4267 120.843 68.4005 120.843C68.3744 120.843 68.3221 120.843 68.2959 120.843C68.2437 120.843 68.1652 120.87 68.1129 120.87C68.0606 120.87 67.9822 120.896 67.9299 120.896L67.6161 120.974C67.5115 121.001 67.3808 121.027 67.2501 121.079C67.1193 121.132 67.0147 121.184 66.9101 121.263C66.8056 121.341 66.7533 121.446 66.701 121.577C66.6487 121.708 66.6487 121.839 66.701 122.023C66.7271 122.128 66.8056 122.232 66.9363 122.337C67.067 122.442 67.2239 122.547 67.4331 122.678C67.6423 122.809 67.8514 122.94 68.0606 123.071C68.2959 123.202 68.5051 123.359 68.7143 123.517C68.9235 123.674 69.1065 123.831 69.2372 124.014C69.3941 124.198 69.4726 124.355 69.5248 124.565C69.5771 124.827 69.5771 125.063 69.551 125.272C69.4987 125.482 69.4203 125.639 69.2895 125.797C69.1588 125.954 69.0019 126.085 68.8189 126.19C68.6359 126.295 68.4005 126.373 68.1652 126.426C68.0345 126.452 67.9037 126.478 67.773 126.478C67.6684 126.478 67.5115 126.504 67.3808 126.478C67.2239 126.478 67.0932 126.452 66.9363 126.426L66.7794 125.744C66.9363 125.77 67.067 125.77 67.1978 125.77C67.3024 125.77 67.4331 125.77 67.5377 125.77C67.6423 125.77 67.7468 125.77 67.8253 125.744C67.9822 125.718 68.1129 125.666 68.2437 125.613C68.3744 125.561 68.479 125.508 68.5574 125.43C68.6359 125.351 68.7143 125.246 68.7404 125.141C68.7666 125.01 68.7666 124.879 68.7404 124.722C68.7143 124.591 68.6358 124.46 68.5051 124.355C68.3744 124.25 68.1914 124.119 68.0083 124.014C67.7991 123.91 67.6161 123.779 67.3808 123.674C67.1716 123.543 66.9363 123.412 66.7533 123.281C66.5441 123.15 66.3872 122.992 66.2303 122.809C66.0734 122.652 65.995 122.442 65.9427 122.232C65.9166 122.075 65.8904 121.892 65.9166 121.708C65.9166 121.525 65.9689 121.341 66.0734 121.158C66.1519 120.974 66.2826 120.817 66.4395 120.686C66.5964 120.555 66.8317 120.45 67.0932 120.372C67.1455 120.345 67.2501 120.345 67.3547 120.319C67.4592 120.293 67.5638 120.267 67.6946 120.267C67.8253 120.241 67.9299 120.241 68.0606 120.214C68.1913 120.188 68.2959 120.188 68.4005 120.188L68.5051 120.817ZM62.0207 127.369C61.8115 127.395 61.6023 127.395 61.3931 127.369C61.184 127.343 61.0009 127.264 60.8179 127.186C60.6349 127.081 60.5041 126.95 60.3734 126.766C60.2427 126.583 60.1642 126.347 60.1381 126.085L59.5367 121.577L60.3473 121.472L60.9486 125.954C60.9748 126.19 61.0794 126.399 61.2101 126.504C61.3408 126.635 61.5762 126.688 61.9161 126.635C62.2298 126.583 62.439 126.478 62.5436 126.321C62.6482 126.163 62.6743 125.954 62.6482 125.718L62.0468 121.263L62.8574 121.158L63.4587 125.666C63.4849 125.928 63.4849 126.19 63.4064 126.399C63.328 126.609 63.2234 126.792 63.0927 126.924C62.962 127.055 62.7789 127.186 62.5959 127.264C62.4129 127.29 62.2298 127.343 62.0207 127.369ZM53.6798 126.452L54.4903 126.426C54.4903 126.583 54.5165 126.714 54.5426 126.819C54.5688 126.897 54.6211 126.976 54.6734 127.028C54.7256 127.081 54.8302 127.107 54.9348 127.107C55.0394 127.107 55.1701 127.133 55.327 127.133C55.6669 127.107 55.8761 127.055 56.0068 126.95C56.1376 126.845 56.1899 126.661 56.1899 126.399L56.0853 121.734L56.922 121.708L57.0004 126.583C57.0004 126.792 56.9743 126.976 56.8958 127.159C56.8174 127.317 56.7128 127.448 56.5559 127.552C56.4252 127.657 56.2422 127.736 56.0591 127.788C55.8761 127.841 55.6669 127.867 55.4316 127.867C54.9087 127.867 54.4642 127.788 54.1504 127.631C53.8366 127.448 53.6798 127.159 53.6536 126.714L53.6798 126.452ZM47.4045 122.128C47.1953 122.101 47.0384 122.101 46.9077 122.101C46.777 122.101 46.6724 122.154 46.5939 122.206C46.5155 122.259 46.4632 122.363 46.4109 122.468C46.3586 122.573 46.3325 122.73 46.3063 122.888L45.9402 125.849C45.9141 126.111 45.9402 126.295 46.071 126.452C46.1756 126.609 46.437 126.714 46.8031 126.766C46.9861 126.792 47.143 126.792 47.2738 126.766C47.4045 126.74 47.5091 126.688 47.5875 126.635C47.666 126.557 47.7182 126.478 47.7705 126.373C47.8228 126.268 47.849 126.163 47.849 126.032L47.9797 124.958L47.4568 124.879L47.5352 124.224L48.8687 124.381L48.4504 127.631L48.1366 127.579L48.0059 127.186C47.9013 127.29 47.7967 127.343 47.666 127.395C47.5614 127.448 47.4568 127.474 47.326 127.474C47.2215 127.5 47.0907 127.5 46.9861 127.474C46.8815 127.474 46.7508 127.448 46.6462 127.448C46.437 127.421 46.2279 127.369 46.0187 127.317C45.8095 127.238 45.6265 127.159 45.4696 127.028C45.3127 126.897 45.182 126.74 45.1035 126.557C45.0251 126.373 44.999 126.137 45.0251 125.875L45.4173 122.704C45.4696 122.363 45.548 122.075 45.6526 121.892C45.7834 121.708 45.9141 121.551 46.0971 121.472C46.2802 121.394 46.4632 121.341 46.6985 121.315C46.9077 121.315 47.143 121.315 47.3783 121.341C47.6137 121.367 47.849 121.42 48.0582 121.499C48.2673 121.577 48.4504 121.682 48.5811 121.787C48.738 121.918 48.8426 122.075 48.921 122.285C48.9995 122.494 48.9995 122.73 48.9733 123.045L48.1627 122.94C48.1889 122.783 48.1889 122.652 48.1627 122.547C48.1366 122.442 48.0843 122.363 48.032 122.285C47.9536 122.206 47.8751 122.18 47.7444 122.128C47.7182 122.18 47.5614 122.154 47.4045 122.128ZM42.3581 120.529L43.1425 120.712L41.7829 126.609L40.92 126.399L40.0833 121.97L39.142 125.98L38.3576 125.797L39.7173 119.9L40.5801 120.11L41.3384 124.801L42.3581 120.529ZM36.3704 118.747L37.1549 119.009L35.22 124.748L34.4356 124.486L36.3704 118.747ZM30.069 119.349C30.3305 118.799 30.592 118.354 30.9057 118.065C31.1933 117.751 31.5071 117.541 31.7947 117.41C32.0823 117.279 32.37 117.227 32.6314 117.227C32.8929 117.227 33.1282 117.279 33.3112 117.358C33.4158 117.41 33.5204 117.463 33.625 117.515C33.7296 117.567 33.8342 117.62 33.9126 117.698L33.625 118.354C33.5727 118.327 33.5204 118.301 33.442 118.249C33.3635 118.223 33.2851 118.17 33.2589 118.17C32.9975 118.039 32.736 117.987 32.5007 118.013C32.2654 118.039 32.0562 118.118 31.847 118.249C31.6378 118.38 31.4548 118.563 31.2979 118.799C31.141 119.035 30.9842 119.297 30.8273 119.612C30.6965 119.9 30.592 120.214 30.5397 120.503C30.4874 120.791 30.4874 121.053 30.5135 121.315C30.5658 121.577 30.6442 121.787 30.775 121.996C30.9057 122.206 31.1149 122.363 31.3764 122.468C31.4287 122.494 31.481 122.521 31.5332 122.521C31.5855 122.547 31.6378 122.547 31.6901 122.573L31.4025 123.202C31.3764 123.202 31.3502 123.202 31.3502 123.176C31.3241 123.176 31.2979 123.15 31.2718 123.15C31.2195 123.15 31.1672 123.123 31.1149 123.097C31.0626 123.071 30.9842 123.045 30.9057 122.992C30.6704 122.888 30.4351 122.704 30.252 122.494C30.0429 122.259 29.9121 121.996 29.8075 121.682C29.703 121.367 29.6768 121.001 29.703 120.607C29.7553 120.241 29.8598 119.821 30.069 119.349ZM28.6832 114.999L29.363 115.445L26.1208 120.529L25.3626 120.057L26.0424 115.602L23.8199 119.061L23.1401 118.616L26.3823 113.531L27.1406 114.003L26.3038 118.694L28.6832 114.999ZM22.4864 111.54L21.2575 113.112L22.3556 113.977L21.885 114.553L20.7868 113.689L19.6364 115.13L20.9699 116.205L20.5254 116.755L18.5382 115.182L22.2772 110.439L24.2644 112.011L23.7937 112.588L22.4864 111.54ZM14.4331 111.356L18.5905 106.979L20.4208 108.735L19.8978 109.286L18.6689 108.106L17.3093 109.548L18.329 110.518L17.8061 111.068L16.7863 110.098L15.0083 111.959L14.4331 111.356Z" fill="rgb(0,43,85)" fill-rule="nonzero" />
	</g>
</svg>
